<svg height='300px' width='300px' fill="#000000" 
    xmlns="http://www.w3.org/2000/svg" 
    xmlns:xlink="http://www.w3.org/1999/xlink" version="1.1" x="0px" y="0px" viewBox="0 0 512 512" enable-background="new 0 0 512 512" xml:space="preserve">
    <g>
        <g>
            <g>
                <path d="M342.729,239.941c-30.031,0-54.463-24.432-54.463-54.463c0-4.035,0.362-7.772,1.122-11.342H72.839     c-5.523,0-10-4.477-10-10v-43.351c0-5.523,4.477-10,10-10h216.916c-0.973-4.523-1.489-9.347-1.489-14.232     c0-30.031,24.432-54.463,54.463-54.463c26.63,0,48.856,19.21,53.551,44.5c0.675-0.025,1.351-0.038,2.027-0.038     c30.031,0,54.463,24.432,54.463,54.462s-24.432,54.463-54.463,54.463c-0.677,0-1.353-0.013-2.027-0.038     C391.585,220.73,369.358,239.941,342.729,239.941z M82.839,154.136h221.207c3.601,0,6.923,1.936,8.698,5.067     c1.776,3.132,1.731,6.977-0.116,10.066c-3.14,5.249-4.362,9.793-4.362,16.209c0,19.003,15.46,34.463,34.463,34.463     c19.004,0,34.464-15.46,34.464-34.463c0-0.242-0.011-0.482-0.019-0.722l-0.013-0.377c-0.098-3.147,1.291-6.156,3.75-8.122     c2.459-1.967,5.701-2.66,8.748-1.872c2.806,0.725,5.715,1.093,8.647,1.093c19.003,0,34.463-15.46,34.463-34.463     c0-19.002-15.46-34.462-34.463-34.462c-2.933,0-5.843,0.368-8.647,1.093c-3.045,0.789-6.288,0.095-8.748-1.872     c-2.459-1.966-3.848-4.975-3.75-8.122l0.013-0.376c0.008-0.241,0.019-0.481,0.019-0.724c0-19.003-15.46-34.463-34.464-34.463     c-19.003,0-34.463,15.46-34.463,34.463c0,7.393,1.631,14.532,4.362,19.1c1.848,3.089,1.893,6.934,0.116,10.066     c-1.775,3.131-5.098,5.067-8.698,5.067H82.839V154.136z"></path>
            </g>
            <g>
                <path d="M116.19,245.411c-4.983,0-9.022-4.039-9.022-9.022v-72.252c0-4.983,4.04-9.022,9.022-9.022s9.022,4.04,9.022,9.022     v72.252C125.213,241.372,121.173,245.411,116.19,245.411z"></path>
            </g>
            <g>
                <path d="M159.542,230.96c-4.983,0-9.022-4.039-9.022-9.022v-57.802c0-4.983,4.04-9.021,9.022-9.021s9.022,4.04,9.022,9.021     v57.802C168.564,226.921,164.524,230.96,159.542,230.96z"></path>
            </g>
            <rect x="87.067" y="76.93" width="20.326" height="20.326"></rect>
            <rect x="117.556" y="76.93" width="20.326" height="20.326"></rect>
            <rect x="148.045" y="76.93" width="20.326" height="20.326"></rect>
            <rect x="178.534" y="76.93" width="20.326" height="20.326"></rect>
            <g>
                <path d="M249.674,329.861H76.904c-4.983,0-9.022-4.039-9.022-9.021v-40.65c0-4.983,4.04-9.022,9.022-9.022h172.77     c4.983,0,9.021,4.039,9.021,9.022v40.65C258.695,325.822,254.657,329.861,249.674,329.861z M85.927,311.816h154.724v-22.605     H85.927V311.816z"></path>
            </g>
            <g>
                <path d="M442.77,329.861H280.163c-4.983,0-9.022-4.039-9.022-9.021v-40.65c0-4.983,4.039-9.022,9.022-9.022H442.77     c4.982,0,9.022,4.039,9.022,9.022v40.65C451.792,325.822,447.752,329.861,442.77,329.861z M289.186,311.816h144.563v-22.605     H289.186V311.816z"></path>
            </g>
            <g>
                <path d="M148.045,401.003H76.904c-4.983,0-9.022-4.04-9.022-9.022v-40.65c0-4.982,4.04-9.021,9.022-9.021h71.141     c4.983,0,9.022,4.039,9.022,9.021v40.65C157.067,396.963,153.028,401.003,148.045,401.003z M85.927,382.958h53.095v-22.606     H85.927V382.958z"></path>
            </g>
            <g>
                <path d="M280.163,401.003H178.534c-4.983,0-9.022-4.04-9.022-9.022v-40.65c0-4.982,4.04-9.021,9.022-9.021h101.629     c4.981,0,9.022,4.039,9.022,9.021v40.65C289.186,396.963,285.146,401.003,280.163,401.003z M187.556,382.958h83.583v-22.606     h-83.583V382.958z"></path>
            </g>
            <g>
                <path d="M442.77,401.003H310.651c-4.982,0-9.022-4.04-9.022-9.022v-40.65c0-4.982,4.04-9.021,9.022-9.021H442.77     c4.982,0,9.022,4.039,9.022,9.021v40.65C451.792,396.963,447.752,401.003,442.77,401.003z M319.674,382.958h114.073v-22.606     H319.674V382.958z"></path>
            </g>
            <g>
                <path d="M341.141,472.144H239.511c-4.983,0-9.022-4.039-9.022-9.022V422.47c0-4.981,4.04-9.021,9.022-9.021H341.14     c4.982,0,9.022,4.04,9.022,9.021v40.651C350.163,468.104,346.123,472.144,341.141,472.144z M248.534,454.098h83.584v-22.605     h-83.584V454.098L248.534,454.098z"></path>
            </g>
            <g>
                <path d="M209.022,472.144H76.904c-4.983,0-9.022-4.039-9.022-9.022V422.47c0-4.981,4.04-9.021,9.022-9.021h132.118     c4.983,0,9.022,4.04,9.022,9.021v40.651C218.045,468.104,214.005,472.144,209.022,472.144z M85.927,454.098H200v-22.605H85.927     V454.098z"></path>
            </g>
        </g>
    </g>
</svg>